<svg width="30" height="30" viewBox="0 0 30 30" fill="none" xmlns="http://www.w3.org/2000/svg">
<mask id="mask0_118_941" style="mask-type:alpha" maskUnits="userSpaceOnUse" x="0" y="0" width="30" height="30">
<rect width="30" height="30" fill="#D9D9D9"/>
</mask>
<g mask="url(#mask0_118_941)">
<path d="M19.9375 27.5L14.625 22.1875L16.375 20.4375L19.9375 24L27 16.9375L28.75 18.6875L19.9375 27.5ZM15 13.75L25 7.5H5L15 13.75ZM15 16.25L5 10V22.5H11.4375L13.9375 25H5C4.3125 25 3.72396 24.7552 3.23438 24.2656C2.74479 23.776 2.5 23.1875 2.5 22.5V7.5C2.5 6.8125 2.74479 6.22396 3.23438 5.73438C3.72396 5.24479 4.3125 5 5 5H25C25.6875 5 26.276 5.24479 26.7656 5.73438C27.2552 6.22396 27.5 6.8125 27.5 7.5V12.9375L25 15.4375V10L15 16.25Z" fill="#8D495A"/>
</g>
</svg>
