<svg width="30" height="30" viewBox="0 0 30 30" fill="none" xmlns="http://www.w3.org/2000/svg">
<mask id="mask0_118_936" style="mask-type:alpha" maskUnits="userSpaceOnUse" x="0" y="0" width="30" height="30">
<rect width="30" height="30" fill="#D9D9D9"/>
</mask>
<g mask="url(#mask0_118_936)">
<path d="M22.9375 18.5625L21.125 16.75C21.375 16.5208 21.5677 16.2552 21.7031 15.9531C21.8385 15.651 21.9063 15.3333 21.9063 15C21.9063 14.6667 21.8385 14.349 21.7031 14.0469C21.5677 13.7448 21.375 13.4792 21.125 13.25L22.9375 11.4375C23.4167 11.9167 23.7812 12.4635 24.0312 13.0781C24.2812 13.6927 24.4062 14.3333 24.4062 15C24.4062 15.6667 24.2812 16.3073 24.0312 16.9219C23.7812 17.5365 23.4167 18.0833 22.9375 18.5625ZM26 21.625L24.25 19.875C24.8958 19.2292 25.3958 18.4896 25.75 17.6562C26.1042 16.8229 26.2812 15.9375 26.2812 15C26.2812 14.0625 26.1042 13.1771 25.75 12.3438C25.3958 11.5104 24.8958 10.7708 24.25 10.125L26 8.375C26.8958 9.25 27.5833 10.2604 28.0625 11.4062C28.5417 12.5521 28.7812 13.75 28.7812 15C28.7812 16.25 28.5417 17.4479 28.0625 18.5938C27.5833 19.7396 26.8958 20.75 26 21.625ZM8.75 28.75C8.0625 28.75 7.47396 28.5052 6.98438 28.0156C6.49479 27.526 6.25 26.9375 6.25 26.25V3.75C6.25 3.0625 6.49479 2.47396 6.98438 1.98438C7.47396 1.49479 8.0625 1.25 8.75 1.25H21.25C21.9375 1.25 22.526 1.49479 23.0156 1.98438C23.5052 2.47396 23.75 3.0625 23.75 3.75V8.75H21.25V7.5H8.75V22.5H21.25V21.25H23.75V26.25C23.75 26.9375 23.5052 27.526 23.0156 28.0156C22.526 28.5052 21.9375 28.75 21.25 28.75H8.75ZM8.75 25V26.25H21.25V25H8.75ZM8.75 5H21.25V3.75H8.75V5Z" fill="#8D495A"/>
</g>
</svg>
