<svg width="30" height="30" viewBox="0 0 30 30" fill="none" xmlns="http://www.w3.org/2000/svg">
<mask id="mask0_118_944" style="mask-type:alpha" maskUnits="userSpaceOnUse" x="0" y="0" width="30" height="30">
<rect width="30" height="30" fill="#D9D9D9"/>
</mask>
<g mask="url(#mask0_118_944)">
<path d="M9.13462 28.1249C8.50321 28.1249 7.96875 27.9062 7.53125 27.4687C7.09375 27.0312 6.875 26.4967 6.875 25.8653V4.13463C6.875 3.50321 7.09375 2.96875 7.53125 2.53125C7.96875 2.09375 8.50321 1.875 9.13462 1.875H20.8653C21.4967 1.875 22.0312 2.09375 22.4687 2.53125C22.9062 2.96875 23.1249 3.50321 23.1249 4.13463V25.8653C23.1249 26.4967 22.9062 27.0312 22.4687 27.4687C22.0312 27.9062 21.4967 28.1249 20.8653 28.1249L9.13462 28.1249ZM8.74997 24.6875V25.8653C8.74997 25.9615 8.79003 26.0497 8.87016 26.1298C8.9503 26.2099 9.03846 26.25 9.13462 26.25H20.8653C20.9615 26.25 21.0496 26.2099 21.1298 26.1298C21.2099 26.0497 21.25 25.9615 21.25 25.8653V24.6875H8.74997ZM8.74997 22.8125H21.25V7.18747H8.74997V22.8125ZM15 19.5673L10.4327 15L11.75 13.6827L14.0625 15.9568V10.4327H15.9374V15.9568L18.25 13.6827L19.5673 15L15 19.5673ZM8.74997 5.3125H21.25V4.13463C21.25 4.03846 21.2099 3.9503 21.1298 3.87016C21.0496 3.79003 20.9615 3.74997 20.8653 3.74997H9.13462C9.03846 3.74997 8.9503 3.79003 8.87016 3.87016C8.79003 3.9503 8.74997 4.03846 8.74997 4.13463V5.3125Z" fill="#8D495A"/>
</g>
</svg>
